<svg viewBox="0 0 16 16" fill="none" xmlns="http://www.w3.org/2000/svg">
    <path fill-rule="evenodd" clip-rule="evenodd"
        d="M10.8741 7.76739C10.914 7.80719 10.9457 7.85448 10.9673 7.90653C10.9889 7.95859 11 8.0144 11 8.07076C11 8.12712 10.9889 8.18292 10.9673 8.23498C10.9457 8.28703 10.914 8.33432 10.8741 8.37412L5.73238 13.5159C5.65192 13.5963 5.5428 13.6415 5.42902 13.6415C5.31524 13.6415 5.20611 13.5963 5.12566 13.5159C5.0452 13.4354 5 13.3263 5 13.2125C5 13.0987 5.0452 12.9896 5.12566 12.9091L9.96489 8.07076L5.12566 3.23238C5.0452 3.15192 5 3.0428 5 2.92902C5 2.81524 5.0452 2.70611 5.12566 2.62566C5.20611 2.5452 5.31524 2.5 5.42902 2.5C5.5428 2.5 5.65193 2.5452 5.73238 2.62566L10.8741 7.76739Z"
        fill="#F3F3F3" />
</svg>