<svg width="16" height="16" viewBox="0 0 16 16" fill="none" xmlns="http://www.w3.org/2000/svg">
<path d="M7.5 6.5V0.5C7.5 0.364583 7.54948 0.247396 7.64844 0.148438C7.7474 0.0494792 7.86458 0 8 0C8.13542 0 8.2526 0.0494792 8.35156 0.148438C8.45052 0.247396 8.5 0.364583 8.5 0.5V6.5C8.5 6.63542 8.45052 6.7526 8.35156 6.85156C8.2526 6.95052 8.13542 7 8 7C7.86458 7 7.7474 6.95052 7.64844 6.85156C7.54948 6.7526 7.5 6.63542 7.5 6.5ZM0.5 8.5C0.5 7.84896 0.585938 7.20833 0.757812 6.57812C0.929688 5.94271 1.17448 5.34375 1.49219 4.78125C1.8151 4.21354 2.20312 3.69531 2.65625 3.22656C3.11458 2.7526 3.6276 2.35417 4.19531 2.03125C4.27344 1.98438 4.35938 1.96094 4.45312 1.96094C4.58854 1.96094 4.70573 2.01042 4.80469 2.10938C4.90365 2.20833 4.95312 2.32552 4.95312 2.46094C4.95312 2.5651 4.92969 2.64844 4.88281 2.71094C4.84115 2.77344 4.78125 2.83333 4.70312 2.89062C4.52083 3.01562 4.34115 3.13802 4.16406 3.25781C3.99219 3.3724 3.82292 3.50521 3.65625 3.65625C3.32292 3.95833 3.02344 4.29427 2.75781 4.66406C2.49219 5.03385 2.26562 5.42448 2.07812 5.83594C1.89062 6.2474 1.7474 6.67448 1.64844 7.11719C1.54948 7.5599 1.5 8.00781 1.5 8.46094C1.5 9.0651 1.57552 9.64583 1.72656 10.2031C1.88281 10.7552 2.09896 11.2734 2.375 11.7578C2.65625 12.2422 2.99479 12.6849 3.39062 13.0859C3.78646 13.4818 4.22396 13.8229 4.70312 14.1094C5.1875 14.3906 5.70573 14.6094 6.25781 14.7656C6.8151 14.9219 7.39583 15 8 15C8.60417 15 9.18229 14.9219 9.73438 14.7656C10.2917 14.6094 10.8099 14.3906 11.2891 14.1094C11.7734 13.8229 12.2135 13.4818 12.6094 13.0859C13.0052 12.6849 13.3411 12.2422 13.6172 11.7578C13.8984 11.2734 14.1146 10.7526 14.2656 10.1953C14.4219 9.63802 14.5 9.0599 14.5 8.46094C14.5 8.00781 14.4505 7.5599 14.3516 7.11719C14.2526 6.67448 14.1094 6.2474 13.9219 5.83594C13.7344 5.42448 13.5078 5.03385 13.2422 4.66406C12.9766 4.29427 12.6771 3.95833 12.3438 3.65625C12.1771 3.50521 12.0052 3.3724 11.8281 3.25781C11.6562 3.13802 11.4792 3.01562 11.2969 2.89062C11.2188 2.83333 11.1562 2.77344 11.1094 2.71094C11.0677 2.64844 11.0469 2.5651 11.0469 2.46094C11.0469 2.32552 11.0964 2.20833 11.1953 2.10938C11.2943 2.01042 11.4115 1.96094 11.5469 1.96094C11.6406 1.96094 11.7266 1.98438 11.8047 2.03125C12.3724 2.35417 12.8828 2.7526 13.3359 3.22656C13.7943 3.69531 14.1823 4.21354 14.5 4.78125C14.8229 5.34375 15.0703 5.94271 15.2422 6.57812C15.4141 7.20833 15.5 7.84896 15.5 8.5C15.5 9.1875 15.4089 9.85156 15.2266 10.4922C15.0495 11.1276 14.7969 11.724 14.4688 12.2812C14.1458 12.8385 13.7552 13.3464 13.2969 13.8047C12.8438 14.2578 12.3385 14.6484 11.7812 14.9766C11.224 15.2995 10.625 15.5521 9.98438 15.7344C9.34896 15.9115 8.6875 16 8 16C7.30729 16 6.64062 15.9115 6 15.7344C5.36458 15.5521 4.76823 15.2995 4.21094 14.9766C3.65885 14.6484 3.15365 14.2578 2.69531 13.8047C2.24219 13.3464 1.85156 12.8411 1.52344 12.2891C1.20052 11.7318 0.947917 11.1328 0.765625 10.4922C0.588542 9.85156 0.5 9.1875 0.5 8.5Z" fill="white"/>
</svg>
